<svg width="68" height="38" viewBox="0 0 68 38" fill="none" xmlns="http://www.w3.org/2000/svg">
<path id="fcr_listontop_big" fillRule="evenodd" clipRule="evenodd" d="M4.08 0C1.82668 0 0 1.82284 0 4.07143V6.84848C0 7.48445 0.516634 8 1.15394 8H11.3724C12.0097 8 12.5263 7.48445 12.5263 6.84848V1.15152C12.5263 0.515551 12.0097 0 11.3724 0H4.08ZM2.72 10C1.21779 10 0 11.2152 0 12.7143V33.9286C0 36.1772 1.82668 38 4.08 38H63.92C66.1733 38 68 36.1772 68 33.9286V12.7143C68 11.2152 66.7822 10 65.28 10H2.72ZM28.0352 1.15152C28.0352 0.515553 28.5518 0 29.1891 0H39.4076C40.0449 0 40.5615 0.515551 40.5615 1.15152V6.84848C40.5615 7.48445 40.0449 8 39.4076 8H29.1891C28.5518 8 28.0352 7.48445 28.0352 6.84848V1.15152ZM57.224 0C56.5867 0 56.07 0.515553 56.07 1.15152V6.84848C56.07 7.48445 56.5867 8 57.224 8H66.8459C67.4832 8 67.9998 7.48445 67.9998 6.84848V4.07143C67.9998 1.82284 66.1732 0 63.9198 0H57.224ZM14.3159 1.15152C14.3159 0.515553 14.8325 0 15.4699 0H25.0918C25.7291 0 26.2457 0.515551 26.2457 1.15152V6.84848C26.2457 7.48445 25.7291 8 25.0918 8H15.4699C14.8325 8 14.3159 7.48445 14.3159 6.84848V1.15152ZM43.5047 0C42.8674 0 42.3508 0.515553 42.3508 1.15152V6.84848C42.3508 7.48445 42.8674 8 43.5047 8H53.1266C53.7639 8 54.2806 7.48445 54.2806 6.84848V1.15152C54.2806 0.515551 53.7639 0 53.1266 0H43.5047Z" fill="#E5EAF3" fillOpacity="0.9"/>
</svg>
