<svg width="10" height="10" viewBox="0 0 10 10" fill="none" xmlns="http://www.w3.org/2000/svg">
<path fillRule="evenodd" clipRule="evenodd" d="M1.61335 6C2.14518 6 2.57632 5.55228 2.57632 5C2.57632 4.44772 2.14518 4 1.61335 4C1.08152 4 0.650391 4.44772 0.650391 5C0.650391 5.55228 1.08152 6 1.61335 6Z" fill="white"/>
<path fillRule="evenodd" clipRule="evenodd" d="M4.98372 6C5.51555 6 5.94669 5.55228 5.94669 5C5.94669 4.44772 5.51555 4 4.98372 4C4.45189 4 4.02076 4.44772 4.02076 5C4.02076 5.55228 4.45189 6 4.98372 6Z" fill="white"/>
<path fillRule="evenodd" clipRule="evenodd" d="M8.3541 6C8.88593 6 9.31706 5.55228 9.31706 5C9.31706 4.44772 8.88593 4 8.3541 4C7.82227 4 7.39113 4.44772 7.39113 5C7.39113 5.55228 7.82227 6 8.3541 6Z" fill="white"/>
</svg>
