<svg width="280" height="192" viewBox="0 0 280 192" fill="none" xmlns="http://www.w3.org/2000/svg">
<g clipPath="url(#clip0_78645_97872)">
<rect width="280" height="152" rx="12" transform="matrix(-1 0 0 1 280 40)" fill="url(#paint0_linear_78645_97872)"/>
<mask id="mask0_78645_97872" style="mask-type:alpha" maskUnits="userSpaceOnUse" x="0" y="39" width="280" height="153">
<rect width="280" height="152.297" rx="12" transform="matrix(-1 0 0 1 280 39.1875)" fill="url(#paint1_linear_78645_97872)"/>
</mask>
<g mask="url(#mask0_78645_97872)">
<ellipse cx="66.2162" cy="54.3919" rx="66.2162" ry="54.3919" transform="matrix(-0.878077 -0.478518 -0.478519 0.878077 127.666 120.586)" fill="#4262FF"/>
<ellipse cx="75.2027" cy="45.8784" rx="75.2027" ry="45.8784" transform="matrix(-0.970823 0.239797 0.239798 0.970823 341.24 10.8633)" fill="#3F49D5"/>
<ellipse cx="55.3378" cy="55.3378" rx="55.3378" ry="55.3378" transform="matrix(-1 0 0 1 185.406 145.188)" fill="#4468FF"/>
</g>
<path d="M11 191.5L280 164V180C280 186.627 274.627 192 268 192H11V191.5Z" fill="#3F49D5"/>
<path d="M113.525 180C108.858 177.333 99.4248 168.3 99.0248 153.5C98.5248 135 105.525 76.5 126.025 48.5C146.525 20.5 169.525 8 182.525 8C195.525 8 200.525 24.5 189.525 32.5C178.525 40.5 137.525 70 127.525 91.5C117.525 113 106.525 115 105.025 132" stroke="#00ECBC" strokeWidth="3" strokeLinecap="round"/>
<path d="M188.525 109C170.525 119.4 156.5 147.833 150.5 165L148.025 176L152.525 175.5C153.525 173.5 156.025 170.8 158.025 166C160.525 160 187.025 141.5 198.525 130C210.025 118.5 277.525 111 268.025 93C258.525 75 211.025 96 188.525 109Z" fill="#00ECBC"/>
<path d="M127.025 161C131.025 139.667 145.025 92.5 169.025 74.5C199.025 52 230.025 -1.50003 269.525 9.49997C309.025 20.5 199.525 60.5 187.025 87.5C174.525 114.5 149.025 123 146.025 139C143.025 155 122.025 164 130.025 172C136.425 178.4 140.359 178.667 141.525 178M150.5 165C156.5 147.833 170.525 119.4 188.525 109C211.025 96 258.525 75 268.025 93C277.525 111 210.025 118.5 198.525 130C187.025 141.5 160.525 160 158.025 166C156.025 170.8 153.525 173.5 152.525 175.5L148.025 176L150.5 165Z" stroke="#00ECBC" strokeWidth="3" strokeLinecap="round"/>
<path d="M261.525 93.5C262.192 94.5 263.325 97 262.525 99C261.525 101.5 260.025 104 251.025 106C242.025 108 230.525 105.5 224.525 109C218.525 112.5 204.025 118.5 199.025 126.5" stroke="#4970FF" strokeLinecap="round"/>
<path d="M239.543 131.621C239.303 132.234 239.579 132.927 240.173 133.209L252.316 138.955C253.458 139.496 254.819 138.955 255.28 137.779C255.74 136.602 255.107 135.281 253.902 134.903L241.083 130.883C240.456 130.686 239.783 131.008 239.543 131.621Z" fill="black"/>
<path d="M239.441 124.861C239.669 125.476 240.338 125.806 240.965 125.613L256.635 120.806C257.847 120.434 258.496 119.119 258.054 117.931C257.611 116.743 256.26 116.172 255.1 116.683L240.102 123.295C239.502 123.559 239.212 124.246 239.441 124.861Z" fill="white"/>
<path d="M233.621 120.124C234.171 120.486 234.906 120.362 235.306 119.839L243.368 109.284C244.135 108.28 243.891 106.836 242.836 106.141C241.781 105.446 240.358 105.791 239.738 106.891L233.219 118.464C232.896 119.037 233.072 119.762 233.621 120.124Z" fill="#EE5134"/>
<path d="M268.525 10.5C270.025 11.6667 272.925 14.3 272.525 15.5C272.025 17 274.525 21.5 263.025 27C251.525 32.5 216.025 52 204.525 62C193.025 72 168.025 91 165.025 105" stroke="#00ECBC" strokeLinecap="round"/>
<path d="M189.025 9.5C191.692 11.3333 195.425 16.5 189.025 22.5C181.025 30 162.525 34.5 152.025 47C141.525 59.5 131.025 65 131.025 72C131.025 79 123.525 85 122.025 86.5" stroke="#00ECBC" strokeLinecap="round"/>
<path d="M127 60.1172C126.8 56.7839 126.56 53.7069 125.6 49.6044C124.64 45.5018 123.467 41.5702 123 40.1172" stroke="#456AFF" strokeWidth="1.68607" strokeLinecap="round"/>
<path d="M73.1351 61.9115C73.5831 60.9482 73.2025 59.8027 72.2671 59.299L48.8981 46.7143C47.0908 45.741 44.8369 46.4899 43.9714 48.3513C43.1059 50.2127 43.9858 52.4187 45.8949 53.1734L70.5781 62.9315C71.5661 63.322 72.6872 62.8748 73.1351 61.9115Z" fill="black"/>
<path d="M82.1934 53.3802C83.0192 52.7119 83.181 51.5157 82.5624 50.652L67.1067 29.0742C65.9114 27.4053 63.5578 27.0869 61.962 28.3782C60.3662 29.6695 60.1866 32.0377 61.5694 33.5549L79.4483 53.172C80.1639 53.9571 81.3675 54.0484 82.1934 53.3802Z" fill="#FFED48"/>
<path d="M71.3239 72.9836C70.899 72.0099 69.7888 71.5362 68.7918 71.9032L43.8836 81.0719C41.9572 81.7811 41.0251 83.9655 41.8461 85.847C42.6672 87.7284 44.9026 88.5307 46.7326 87.6006L70.394 75.5748C71.3411 75.0934 71.7488 73.9573 71.3239 72.9836Z" fill="white"/>
<path d="M94.4788 152.445C94.4788 151.147 95.9267 149.02 96.6507 148.119L70.5891 124.326L59.7299 136.222C59.0059 136.222 57.3408 136.547 56.4721 137.844C55.3862 139.467 47.7843 144.874 47.2413 145.415C46.6984 145.956 47.2413 148.119 47.2413 149.2C47.2413 150.282 74.3893 179.482 78.19 181.645C81.2306 183.375 94.6598 183.087 100.994 182.727C101.537 182.006 102.84 180.131 103.709 178.401C104.795 176.238 104.795 166.504 103.709 164.341C102.623 162.178 94.4788 154.067 94.4788 152.445Z" fill="#FFF06D"/>
<path d="M179.181 162.719C177.878 162.286 166.387 152.445 161.5 148.119L186.5 122C187.767 123.081 192.755 125.948 194.927 125.948C197.642 125.948 209.044 120 215.016 120C220.989 120 220.989 121.622 222.618 121.081C224.247 120.54 229.676 124.326 230.762 125.948C231.848 127.57 229.518 131.57 224.247 140.548C214 158 190.629 172 189 172C187.371 172 181.896 167.045 180.267 165.963C178.638 164.882 180.81 163.26 179.181 162.719Z" fill="#FFF06D"/>
<path d="M136.027 85.3125C137.325 84.45 141.253 82.0781 143.054 81C149 87 159.405 97.775 162 99.5C164.595 101.225 180.892 114.062 189 120.352C185.396 125.742 176.892 137.602 171.703 141.914C166.514 146.227 161.973 149.102 160.352 150C148.64 138.141 124.784 113.775 123.055 111.188C122.095 109.752 121.867 108.693 121.947 107.973C115.278 120.876 102.572 144.969 100.892 146.227C99.1619 147.52 97.4683 148.5 97.1079 148.5L69 122.508C74.5855 116.578 86.4053 103.533 88.9999 98.7891C91.5944 94.0453 95.4863 87.8281 97.1079 85.3125L125.216 90.9726C128.62 89.2695 134.798 86.1297 136.027 85.3125Z" fill="#2825A9"/>
<path d="M118.23 79.5222C120.399 83.8778 124.953 92.8067 125.821 93.6778C126.688 94.5489 127.267 95.8556 127.447 96.4C127.086 97.4889 125.712 99.6667 123.11 99.6667C120.598 99.6667 119.568 98.9905 119.336 98.6171C120.97 101.536 124.194 107.621 124.194 108.922C124.194 110.556 123.652 112.733 121.483 112.733C119.748 112.733 118.23 112.007 117.688 111.644C117.688 112.733 117.363 114.911 116.061 114.911H112.266C112.085 115.274 111.29 116 109.555 116C107.386 116 103.049 110.011 99.7954 102.389C97.1928 96.2911 96.1807 90.0481 96 87.6889L118.23 79.5222Z" fill="#E46AAA"/>
<path d="M161.606 75.1667C160 74 153.111 69.7222 149.135 67L140.46 78.4333L143.171 81.1556L148.051 86.0556C149.968 87.9805 155.331 93.3222 157.5 95.5C157.541 95.5414 158.5 96.5 159.5 95.5C159.935 95.0653 159.361 93.863 159 93.5C159 93.3185 160.773 94.2269 162 93C163.5 91.5 162.69 90 162 89C161.458 88.637 161.389 88.7778 162.69 88.7778C164.317 88.7778 165.401 87.1444 164.859 85.5111C164.425 84.2044 160.702 81.337 158.895 80.0667C159.256 79.8852 160.192 80.0385 161 79.5C162.5 78.5 162.595 75.8851 161.606 75.1667Z" fill="#E46AAA"/>
<path d="M113.5 104C114.333 106.167 116.3 110.7 117.5 111.5" stroke="black" strokeLinecap="round"/>
<path d="M108 107C108.833 109.167 110.8 113.7 112 114.5" stroke="black" strokeLinecap="round"/>
<path d="M93.9343 84.5493C93.9343 84.7913 94.1622 85.7254 94.4257 86.7195C94.7288 87.8632 95.9677 88.4696 97.0669 88.0318L117.957 79.7121L118.228 80.2492L124.5 92C125.4 91.6417 125 91.5 129.565 89.3874C131.949 88.2842 140.081 84.0084 143.5 81.5L140.5 78.5C140.5 78.5 148 69 149 67L148.338 66.5589C147.811 66.2073 147.482 65.6267 147.45 64.9937L147.406 64.1009C147.389 63.7635 147.289 63.4358 147.105 63.1525C145.504 60.688 141.996 56.2009 138.743 54.9862C135.287 53.6961 127.225 37.6061 123.626 29.7223C122.546 27.9306 119.091 24.7771 113.909 26.4972C107.432 28.6473 102.032 39.9352 95.014 53.3732C87.9957 66.8112 92.3147 75.949 92.3147 80.2492C92.3147 82.1896 92.7728 83.0812 93.3013 83.4254C93.4907 83.5487 93.9343 84.3233 93.9343 84.5493Z" fill="#FFF06D"/>
<path d="M65.2749 140.969C64.8682 139.379 61.0392 136.994 59.1755 136C57.9898 136.331 55.72 137.093 56.1266 137.491C56.6349 137.988 46.4684 144.944 45.4518 145.441C44.4352 145.938 45.4518 147.429 45.4518 148.92C45.4518 150.41 75.4405 180.722 78.9985 182.213C82.5565 183.703 99.3299 182.71 101.363 182.213C103.396 181.716 105.429 175.256 104.921 174.262C104.413 173.268 100.855 173.268 95.7719 172.771C90.6891 172.274 82.0482 169.79 80.5234 168.796C78.9985 167.802 78.4902 160.349 76.4571 159.355C74.424 158.361 68.3246 152.398 66.2914 151.404C64.2583 150.41 65.7832 142.957 65.2749 140.969Z" fill="#FFC700"/>
<circle cx="126.5" cy="21.5" r="5.5" fill="#E46AAA"/>
<path d="M127 24C127.137 24 127.491 24.1 127.819 24.5C128.147 24.9 127.956 26.3333 127.819 27" stroke="black" strokeWidth="0.5" strokeLinecap="round"/>
<path fillRule="evenodd" clipRule="evenodd" d="M123.999 16.0966L131.584 23.5616C132.965 21.4423 132.712 18.5753 130.839 16.7325C128.967 14.8897 126.096 14.6825 123.999 16.0966Z" fill="black"/>
<path d="M124 16L136 28" stroke="black" strokeLinecap="round"/>
<path d="M75 116.071C77.7711 119.05 82.2094 123.632 86.413 127.583M96.1957 135.238C94.2778 134.594 90.4538 131.38 86.413 127.583M86.413 127.583C89.4928 124.111 95.8696 116.619 96.7391 114.429C97.6087 112.238 99.6377 109.135 100.543 107.857M126.63 98C138.587 110.413 162.826 135.348 164.13 135.786M154.891 144C157.609 141.992 163.804 136.99 166.848 133.048C169.891 129.105 173.551 124.103 175 122.095" stroke="black"/>
<path d="M215 134.999C218.461 130 220.5 124.833 222.5 120.999C222.761 120.499 224.475 120.43 225.5 120.999C228.286 122.548 230.75 125 231.5 126.499C232 127.499 227.703 135.594 226 139C222.503 145.995 212.28 156.219 210.006 158.494L210 158.499C204.5 164 197.5 170.5 189.5 173C187.973 173.477 182.667 168.833 179.5 165.499C179.5 164.999 179.6 163.4 180 163C180.5 162.5 185.03 163.342 191 159C196.5 155 206 148 215 134.999Z" fill="#FFC700"/>
<path d="M121 81C121.8 82.2 126 87.8333 128 90.5L124.5 92L118 79.5C116.667 72.3333 114 57.2 114 54C114 50.8 114.667 45 115 42.5C115.5 47.8333 116.6 59.4 117 63C117.5 67.5 120 79.5 121 81Z" fill="#928A46"/>
<path d="M119.5 99C118.833 98.1667 117.4 96.1 117 94.5C116.6 92.9 116.5 91.5 116.5 91" stroke="black" strokeLinecap="round"/>
<path d="M148.062 75C147.896 75.5 147.962 76.6 149.562 77C151.162 77.4 152.896 76.8333 153.562 76.5C155.229 77.5 158.662 79.5 159.062 79.5" stroke="black" strokeLinecap="round"/>
</g>
<defs>
<linearGradient id="paint0_linear_78645_97872" x1="125.811" y1="-5.6646" x2="209.268" y2="158.269" gradientUnits="userSpaceOnUse">
<stop stop-color="#3D5EFF"/>
<stop offset="1" stop-color="#6092FF"/>
</linearGradient>
<linearGradient id="paint1_linear_78645_97872" x1="125.811" y1="-5.67568" x2="209.527" y2="158.446" gradientUnits="userSpaceOnUse">
<stop stop-color="#3B5BFF"/>
<stop offset="1" stop-color="#5D8FFE"/>
</linearGradient>
<clipPath id="clip0_78645_97872">
<rect width="280" height="192" fill="white"/>
</clipPath>
</defs>
</svg>
