<svg width="68" height="38" viewBox="0 0 68 38" fill="none" xmlns="http://www.w3.org/2000/svg">
<path id="fcr_grid_big" fillRule="evenodd" clipRule="evenodd" d="M2.72 0C1.21779 0 0 1.21523 0 2.71429V9.21213C0 9.84809 0.516635 10.3636 1.15394 10.3636H14.2797C14.917 10.3636 15.4336 9.84809 15.4336 9.21213V1.15152C15.4336 0.515551 14.917 0 14.2797 0H2.72ZM18.7373 0C18.1 0 17.5833 0.51555 17.5833 1.15152V9.21213C17.5833 9.84809 18.1 10.3636 18.7373 10.3636H31.863C32.5003 10.3636 33.0169 9.84809 33.0169 9.21213V1.15152C33.0169 0.515551 32.5003 0 31.863 0H18.7373ZM52.5664 1.15152C52.5664 0.51555 53.083 0 53.7203 0H65.28C66.7822 0 68 1.21523 68 2.71429V9.21213C68 9.84809 67.4834 10.3636 66.8461 10.3636H53.7203C53.083 10.3636 52.5664 9.84809 52.5664 9.21213V1.15152ZM36.2291 0C35.5918 0 35.0752 0.51555 35.0752 1.15152V9.21213C35.0752 9.84809 35.5918 10.3636 36.2291 10.3636H49.3549C49.9922 10.3636 50.5088 9.84809 50.5088 9.21213V1.15152C50.5088 0.515551 49.9922 0 49.3549 0H36.2291ZM17.5833 27.6364C17.5833 27.0004 18.1 26.4848 18.7373 26.4848H31.863C32.5003 26.4848 33.0169 27.0004 33.0169 27.6364V36.8485C33.0169 37.4845 32.5003 38 31.863 38H18.7373C18.1 38 17.5833 37.4845 17.5833 36.8485V27.6364ZM1.15394 26.4848C0.516636 26.4848 0 27.0004 0 27.6364V35.2857C0 36.7848 1.21778 38 2.72 38H14.2797C14.917 38 15.4336 37.4845 15.4336 36.8485V27.6364C15.4336 27.0004 14.917 26.4848 14.2797 26.4848H1.15394ZM52.5664 27.6364C52.5664 27.0004 53.083 26.4848 53.7203 26.4848H66.8461C67.4834 26.4848 68 27.0004 68 27.6364V35.2857C68 36.7848 66.7822 38 65.28 38H53.7203C53.083 38 52.5664 37.4845 52.5664 36.8485V27.6364ZM36.2291 26.4848C35.5918 26.4848 35.0752 27.0004 35.0752 27.6364V36.8485C35.0752 37.4845 35.5918 38 36.2291 38H49.3549C49.9922 38 50.5088 37.4845 50.5088 36.8485V27.6364C50.5088 27.0004 49.9922 26.4848 49.3549 26.4848H36.2291ZM17.5833 13.8184C17.5833 13.1824 18.1 12.6669 18.7373 12.6669H31.863C32.5003 12.6669 33.0169 13.1824 33.0169 13.8184V23.0305C33.0169 23.6665 32.5003 24.1821 31.863 24.1821H18.7373C18.1 24.1821 17.5833 23.6665 17.5833 23.0305V13.8184ZM1.15394 12.6669C0.516636 12.6669 0 13.1824 0 13.8184V23.0305C0 23.6665 0.516635 24.1821 1.15394 24.1821H14.2797C14.917 24.1821 15.4336 23.6665 15.4336 23.0305V13.8184C15.4336 13.1824 14.917 12.6669 14.2797 12.6669H1.15394ZM52.5664 13.8184C52.5664 13.1824 53.083 12.6669 53.7203 12.6669H66.8461C67.4834 12.6669 68 13.1824 68 13.8184V23.0305C68 23.6665 67.4834 24.1821 66.8461 24.1821H53.7203C53.083 24.1821 52.5664 23.6665 52.5664 23.0305V13.8184ZM36.2291 12.6669C35.5918 12.6669 35.0752 13.1824 35.0752 13.8184V23.0305C35.0752 23.6665 35.5918 24.1821 36.2291 24.1821H49.3549C49.9922 24.1821 50.5088 23.6665 50.5088 23.0305V13.8184C50.5088 13.1824 49.9922 12.6669 49.3549 12.6669H36.2291Z" fill="#E5EAF3" fillOpacity="0.9"/>
</svg>
